<svg xmlns="http://www.w3.org/2000/svg" viewBox="0 0 533.5 544.3">
  <path fill="#EA4335" d="M533.5 278.4c0-18.5-1.5-37.1-4.7-55.3H272.1v104.8h147c-12.2 30.9-37 55.9-67.7 72.9l-1.4 1.1 84.2 65.4 1.3.9c51.6-47.6 81.9-118.2 81.9-201.2z"/>
  <path fill="#34A853" d="M272.1 544.3c73.4 0 135.3-24.1 180.4-65.7l-84.2-65.4c-22.2 14.9-50.3 23.8-86.2 23.8-66.1 0-122.4-44.6-142.2-104.4l-1.4.9-82.6 64.4-1.3 1.6c42.7 84.5 129.2 139.6 227.6 139.6z"/>
  <path fill="#FBBC04" d="M129.9 347.9c-5.1-14.9-8-30.6-8-47.1s2.9-32.2 8-47.1L47.4 211.1l-1.2 1.1c-16.2 32.1-25.6 68.7-25.6 107.8s9.4 75.7 25.6 107.8l82.7-64.5z"/>
  <path fill="#4285F4" d="M272.1 107.7c38.8-.6 76.3 14 104.4 40.8l77.7-77.7C405 24.6 339.7-.8 272.1 0 164.2 0 70.1 59.3 27.4 150.3l102.5 79.9c19.8-59.8 76.1-104.4 142.2-104.4z"/>
</svg>
